<?xml version="1.0" encoding="UTF-8"?>
<svg xmlns="http://www.w3.org/2000/svg" version="1.1" viewBox="0 0 360 360">
  <defs>
    <style>
      .cls-1 {
        fill: #fff;
      }

      .cls-2 {
        fill: #d00;
      }
    </style>
  </defs>
  <!-- Generator: Adobe Illustrator 28.6.0, SVG Export Plug-In . SVG Version: 1.2.0 Build 709)  -->
  <g>
    <g id="Layer_1">
      <rect class="cls-1" width="360" height="360" rx="45" ry="45"/>
      <path class="cls-2" d="M303.4,0l-165.9,165.9,35.4,35.4-70.7,70.7L31.5,201.2c-19.5-19.5-19.5-51.2,0-70.7L162,0H45C20.2,0,0,20.2,0,45v270c0,24.8,20.2,45,45,45h11.6l165.9-165.9-35.4-35.4,70.7-70.7,70.7,70.7c19.5,19.5,19.5,51.2,0,70.7l-130.5,130.5h117c24.8,0,45-20.2,45-45V45c0-24.8-20.2-45-45-45h-11.6Z"/>
    </g>
  </g>
</svg>