<?xml version="1.0" encoding="UTF-8"?>
<svg xmlns="http://www.w3.org/2000/svg" version="1.1" viewBox="0 0 360 360">
  <defs>
    <style>
      .cls-1 {
        fill: #fff;
      }
    </style>
  </defs>
  <!-- Generator: Adobe Illustrator 28.6.0, SVG Export Plug-In . SVG Version: 1.2.0 Build 709)  -->
  <g>
    <g id="Logo">
      <path id="Red" class="cls-1" d="M291.7,11.7l-154.1,154.1,35.4,35.4-70.7,70.7L31.5,201.2c-19.5-19.5-19.5-51.2,0-70.7L144.9,17.1c6.3-6.3,1.8-17.1-7.1-17.1H20C8.9,0,0,8.9,0,20v320c0,11,8.9,20,20,20h20c10.6,0,20.8-4.2,28.3-11.7l154.1-154.1-35.4-35.4,70.7-70.7,70.7,70.7c19.5,19.5,19.5,51.2,0,70.7l-113.4,113.4c-6.3,6.3-1.8,17.1,7.1,17.1h117.9c11,0,20-9,20-20V20c0-11.1-9-20-20-20h-20c-10.6,0-20.8,4.2-28.3,11.7h0Z"/>
    </g>
  </g>
</svg>