<?xml version="1.0" encoding="UTF-8"?>
<svg id="Logo" xmlns="http://www.w3.org/2000/svg" viewBox="0 0 360 360">
  <defs>
    <style>
      .cls-1 {
        fill: #d00;
      }
    </style>
  </defs>
  <path id="Red" class="cls-1" d="M291.72,11.72l-154.14,154.14,35.36,35.36-70.71,70.71L31.51,201.21c-19.53-19.53-19.53-51.18,0-70.71L144.94,17.07c6.3-6.3,1.84-17.07-7.07-17.07H20C8.95,0,0,8.95,0,20v320c0,11.05,8.95,20,20,20h20c10.61,0,20.78-4.21,28.28-11.72l154.14-154.14-35.36-35.36,70.71-70.71,70.71,70.71c19.53,19.53,19.53,51.18,0,70.71l-113.43,113.43c-6.3,6.3-1.84,17.07,7.07,17.07h117.87c11.05,0,20-8.95,20-20V20c0-11.05-8.95-20-20-20h-20c-10.61,0-20.78,4.21-28.28,11.72Z"/>
</svg>