<?xml version="1.0" encoding="UTF-8"?>
<svg xmlns="http://www.w3.org/2000/svg" version="1.1" viewBox="0 0 360 360">
  <defs>
    <style>
      .cls-1 {
        fill: #fff;
      }
    </style>
  </defs>
  <!-- Generator: Adobe Illustrator 28.6.0, SVG Export Plug-In . SVG Version: 1.2.0 Build 709)  -->
  <g>
    <g id="Layer_1">
      <g id="Logo">
        <path class="cls-1" d="M303.4,0l-165.9,165.9,35.4,35.4-70.7,70.7L31.5,201.2c-19.5-19.5-19.5-51.2,0-70.7L162,0H30C13.5,0,0,13.5,0,30v300c0,16.5,13.5,30,30,30h26.6l165.9-165.9-35.4-35.4,70.7-70.7,70.7,70.7c19.5,19.5,19.5,51.2,0,70.7l-130.5,130.5h132c16.5,0,30-13.5,30-30V30c0-16.5-13.5-30-30-30h-26.6Z"/>
      </g>
    </g>
  </g>
</svg>