<?xml version="1.0" encoding="UTF-8"?>
<svg xmlns="http://www.w3.org/2000/svg" version="1.1" viewBox="0 0 360 360">
  <defs>
    <style>
      .cls-1 {
        fill: #fff;
      }

      .cls-2 {
        fill: #d00;
      }
    </style>
  </defs>
  <!-- Generator: Adobe Illustrator 28.6.0, SVG Export Plug-In . SVG Version: 1.2.0 Build 709)  -->
  <g>
    <g id="Layer_1">
      <g id="Layer_1-2" data-name="Layer_1">
        <rect class="cls-1" width="360" height="360" rx="51" ry="51"/>
        <path class="cls-2" d="M303.4,0l-165.9,165.9,35.4,35.4-70.7,70.7L31.5,201.2c-19.5-19.5-19.5-51.2,0-70.7L162,0H51C22.9,0,0,22.9,0,51v258c0,28,22.9,51,51,51h5.6l165.9-165.9-35.4-35.4,70.7-70.7,70.7,70.7c19.5,19.5,19.5,51.2,0,70.7l-130.5,130.5h111c28,0,51-23,51-51V51c0-28.1-23-51-51-51h-5.6Z"/>
      </g>
    </g>
  </g>
</svg>