<?xml version="1.0" encoding="UTF-8"?>
<svg xmlns="http://www.w3.org/2000/svg" version="1.1" viewBox="0 0 360 360">
  <defs>
    <style>
      .cls-1 {
        fill: #d00;
      }
    </style>
  </defs>
  <!-- Generator: Adobe Illustrator 28.6.0, SVG Export Plug-In . SVG Version: 1.2.0 Build 709)  -->
  <g>
    <g id="Logo">
      <path class="cls-1" d="M303.4,0l-165.9,165.9,35.4,35.4-70.7,70.7L31.5,201.2c-19.5-19.5-19.5-51.2,0-70.7L162,0H20C9,0,0,9,0,20v320c0,11,9,20,20,20h36.6l165.9-165.9-35.4-35.4,70.7-70.7,70.7,70.7c19.5,19.5,19.5,51.2,0,70.7l-130.5,130.5h142c11,0,20-9,20-20V20C360,9,351,0,340,0h-36.6Z"/>
    </g>
  </g>
</svg>